<svg id="svg" xmlns="http://www.w3.org/2000/svg" xmlns:xlink="http://www.w3.org/1999/xlink" width="400" height="400" viewBox="0, 0, 400,400"><g id="svgg"><path id="path0" d="M0.000 200.000 L 0.000 400.000 200.000 400.000 L 400.000 400.000 400.000 200.000 L 400.000 0.000 200.000 0.000 L 0.000 0.000 0.000 200.000 M206.466 71.491 C 213.723 73.988,219.902 81.952,219.928 88.840 C 219.936 91.068,220.133 91.237,223.548 91.940 C 232.966 93.880,240.528 100.529,243.821 109.766 C 244.717 112.279,244.729 112.532,244.922 134.375 L 245.117 156.445 275.977 156.641 C 295.539 156.764,307.059 156.979,307.445 157.227 C 309.509 158.549,329.713 180.273,330.089 181.573 C 330.376 182.567,330.468 203.895,330.388 251.005 L 330.273 319.002 329.199 320.626 C 328.608 321.519,327.377 322.649,326.464 323.137 L 324.805 324.023 200.836 324.125 C 118.517 324.192,76.377 324.094,75.407 323.833 C 73.147 323.224,71.373 321.840,70.410 319.934 L 69.531 318.194 69.531 250.369 L 69.531 182.545 70.410 180.929 C 70.894 180.040,74.984 175.486,79.499 170.809 C 84.015 166.132,88.727 161.223,89.972 159.901 C 93.283 156.384,90.664 156.638,124.609 156.536 L 154.883 156.445 155.078 134.570 C 155.272 112.836,155.279 112.679,156.193 110.102 C 159.583 100.543,167.188 93.798,176.660 91.951 L 180.078 91.284 180.078 89.865 C 180.078 77.208,194.300 67.306,206.466 71.491 M185.938 140.234 L 185.938 149.219 200.195 149.219 L 214.453 149.219 214.453 140.234 L 214.453 131.250 200.195 131.250 L 185.938 131.250 185.938 140.234 M97.055 207.520 C 96.953 207.788,96.914 226.377,96.970 248.828 L 97.070 289.648 108.984 289.648 L 120.898 289.648 121.006 249.219 C 121.065 226.982,121.017 208.394,120.901 207.910 L 120.688 207.031 108.965 207.031 C 99.945 207.031,97.198 207.144,97.055 207.520 M141.196 207.520 C 141.093 207.788,141.055 226.377,141.110 248.828 L 141.211 289.648 152.709 289.752 C 160.164 289.819,164.347 289.715,164.606 289.456 C 165.134 288.929,165.317 208.697,164.794 207.719 C 164.319 206.832,141.531 206.640,141.196 207.520 M185.395 207.644 C 184.845 209.079,185.133 288.948,185.690 289.410 C 186.073 289.727,190.272 289.824,200.437 289.751 L 214.648 289.648 214.648 248.438 L 214.648 207.227 200.141 207.124 C 187.167 207.033,185.609 207.088,185.395 207.644 M235.273 207.589 C 235.102 207.896,235.049 226.485,235.156 248.898 L 235.352 289.648 247.023 289.752 C 255.309 289.825,258.850 289.727,259.230 289.411 C 259.912 288.845,260.040 209.056,259.361 207.787 C 258.822 206.779,235.832 206.591,235.273 207.589 M279.479 207.514 C 279.376 207.785,279.336 226.377,279.392 248.828 L 279.492 289.648 291.211 289.648 L 302.930 289.648 302.930 248.438 L 302.930 207.227 291.299 207.123 C 282.204 207.042,279.626 207.127,279.479 207.514 " stroke="none" fill="#000000" fill-rule="evenodd"></path></g></svg>